# Blender 4.5.0
# www.blender.org
mtllib Cubo2.mtl
o Cube
v 0.243056 0.296385 -0.263759
v 0.243056 -0.096385 -0.263759
v 0.243056 0.296385 0.161759
v 0.243056 -0.096385 0.161759
v -0.149714 0.296385 -0.263759
v -0.149714 -0.096385 -0.263759
v -0.149714 0.296385 0.161759
v -0.149714 -0.096385 0.161759
vn -0.0000 1.0000 -0.0000
vn -0.0000 -0.0000 1.0000
vn -1.0000 -0.0000 -0.0000
vn -0.0000 -1.0000 -0.0000
vn 1.0000 -0.0000 -0.0000
vn -0.0000 -0.0000 -1.0000
vt 0.602988 0.500000
vt 0.808963 0.500000
vt 0.808963 0.705975
vt 0.602988 0.705975
vt 0.397012 0.705975
vt 0.602988 0.911950
vt 0.397012 0.911950
vt 0.397012 0.088050
vt 0.602988 0.088050
vt 0.602988 0.294025
vt 0.397012 0.294025
vt 0.191037 0.500000
vt 0.397012 0.500000
vt 0.191037 0.705975
s 0
usemtl Material
f 1/1/1 5/2/1 7/3/1 3/4/1
f 4/5/2 3/4/2 7/6/2 8/7/2
f 8/8/3 7/9/3 5/10/3 6/11/3
f 6/12/4 2/13/4 4/5/4 8/14/4
f 2/13/5 1/1/5 3/4/5 4/5/5
f 6/11/6 5/10/6 1/1/6 2/13/6
