# Blender 4.5.0
# www.blender.org
mtllib ParedeDireita.mtl
o Cube.001
v -0.894568 6.160178 -23.938969
v -0.894568 0.009706 -23.938969
v -0.894568 6.160181 10.490223
v -0.894568 0.009709 10.490223
v 0.000000 6.160178 -23.938969
v 0.000000 0.009706 -23.938969
v 0.000000 6.160181 10.490223
v 0.000000 0.009709 10.490223
v -0.894568 6.160178 -27.390018
v -0.894568 0.009706 -27.390018
v 0.000000 0.009706 -27.390018
v 0.000000 6.160178 -27.390018
vn -1.0000 -0.0000 -0.0000
vn -0.0000 -0.0000 1.0000
vn 1.0000 -0.0000 -0.0000
vn -0.0000 1.0000 -0.0000
vn -0.0000 -1.0000 -0.0000
vn -0.0000 -0.0000 -1.0000
vt 0.375000 0.000000
vt 0.625000 0.000000
vt 0.625000 0.250000
vt 0.375000 0.250000
vt 0.625000 0.500000
vt 0.375000 0.500000
vt 0.625000 0.750000
vt 0.375000 0.750000
vt 0.125000 0.500000
vt 0.125000 0.750000
vt 0.875000 0.500000
vt 0.875000 0.750000
vt 0.625000 1.000000
vt 0.375000 1.000000
s 0
f 1/1/1 2/2/1 4/3/1 3/4/1
f 3/4/2 4/3/2 8/5/2 7/6/2
f 7/6/3 8/5/3 6/7/3 5/8/3
f 5/8/3 6/7/3 11/7/3 12/8/3
f 3/9/4 7/6/4 5/8/4 1/10/4
f 8/5/5 4/11/5 2/12/5 6/7/5
f 12/8/6 11/7/6 10/13/6 9/14/6
f 2/2/1 1/1/1 9/1/1 10/2/1
f 1/10/4 5/8/4 12/8/4 9/10/4
f 6/7/5 2/12/5 10/12/5 11/7/5
