# Blender 4.5.0
# www.blender.org
mtllib ParedeDireita.mtl
o Cube.001
v -0.894568 3.882105 -23.938969
v -0.894568 0.009706 -23.938969
v -0.894568 3.882108 10.490224
v -0.894568 0.009709 10.490223
v 0.000000 3.882105 -23.938969
v 0.000000 0.009706 -23.938969
v 0.000000 3.882108 10.490224
v 0.000000 0.009709 10.490223
v -0.894568 3.882104 -27.390018
v -0.894568 0.009706 -27.390018
v 0.000000 0.009706 -27.390018
v 0.000000 3.882104 -27.390018
v -0.801160 3.882101 -27.387268
v -0.801159 3.882102 -17.454378
v -0.067915 3.882105 -27.366394
v -0.067915 5.458759 -27.366394
v -0.067915 3.882105 -21.208412
v -0.067915 5.458760 -21.208412
v -0.846973 3.882105 -27.366394
v -0.846973 5.458759 -27.366394
v -0.846972 3.882105 -21.208412
v -0.846972 5.458760 -21.208412
v -0.894568 5.579730 -14.364493
v -1.664772 5.579730 -14.364493
v -0.894567 0.074699 -14.364493
v -1.664772 0.074699 -14.364493
v -0.894568 5.579730 -16.691181
v -1.664772 5.579730 -16.691181
v -0.894567 0.074698 -16.691181
v -1.664772 0.074698 -16.691181
vn -1.0000 -0.0000 -0.0000
vn -0.0000 -0.0000 1.0000
vn 1.0000 -0.0000 -0.0000
vn -0.0000 1.0000 -0.0000
vn -0.0000 -1.0000 -0.0000
vn -0.0000 -0.0000 -1.0000
vt 0.375000 0.000000
vt 0.625000 0.000000
vt 0.625000 0.250000
vt 0.375000 0.250000
vt 0.625000 0.500000
vt 0.375000 0.500000
vt 0.625000 0.750000
vt 0.375000 0.750000
vt 0.125000 0.500000
vt 0.125000 0.750000
vt 0.875000 0.500000
vt 0.875000 0.750000
vt 0.625000 1.000000
vt 0.375000 1.000000
s 0
f 1/1/1 2/2/1 4/3/1 3/4/1
f 3/4/2 4/3/2 8/5/2 7/6/2
f 7/6/3 8/5/3 6/7/3 5/8/3
f 5/8/3 6/7/3 11/7/3 12/8/3
f 3/9/4 7/6/4 5/8/4 1/10/4
f 8/5/5 4/11/5 2/12/5 6/7/5
f 12/8/6 11/7/6 10/13/6 9/14/6
f 2/2/1 1/1/1 9/1/1 10/2/1
f 1/10/4 5/8/4 12/8/4 9/10/4
f 6/7/5 2/12/5 10/12/5 11/7/5
f 15/1/3 16/2/3 18/3/3 17/4/3
f 17/4/2 18/3/2 22/5/2 21/6/2
f 21/6/1 22/5/1 20/7/1 19/8/1
f 19/8/6 20/7/6 16/13/6 15/14/6
f 17/9/5 21/6/5 19/8/5 15/10/5
f 22/5/4 18/11/4 16/12/4 20/7/4
f 23/1/2 24/2/2 26/3/2 25/4/2
f 25/4/5 26/3/5 30/5/5 29/6/5
f 29/6/6 30/5/6 28/7/6 27/8/6
f 27/8/4 28/7/4 24/13/4 23/14/4
f 25/9/3 29/6/3 27/8/3 23/10/3
f 30/5/1 26/11/1 24/12/1 28/7/1
l 13 14
o Cube
v -0.712048 5.547407 -21.834768
v -0.712049 5.547407 12.861719
v -0.167107 5.547407 -21.834768
v -0.167108 5.547407 12.861719
v -0.712048 4.979362 -21.834768
v -0.712049 4.979362 12.861719
v -0.167107 4.979362 -21.834768
v -0.167108 4.979362 12.861719
vn -0.0000 1.0000 -0.0000
vn 1.0000 -0.0000 -0.0000
vn -0.0000 -1.0000 -0.0000
vn -1.0000 -0.0000 -0.0000
vn -0.0000 -0.0000 -1.0000
vn -0.0000 -0.0000 1.0000
vt 0.375000 0.000000
vt 0.625000 0.000000
vt 0.625000 0.250000
vt 0.375000 0.250000
vt 0.625000 0.500000
vt 0.375000 0.500000
vt 0.625000 0.750000
vt 0.375000 0.750000
vt 0.625000 1.000000
vt 0.375000 1.000000
vt 0.125000 0.500000
vt 0.125000 0.750000
vt 0.875000 0.500000
vt 0.875000 0.750000
s 0
f 31/15/7 32/16/7 34/17/7 33/18/7
f 33/18/8 34/17/8 38/19/8 37/20/8
f 37/20/9 38/19/9 36/21/9 35/22/9
f 35/22/10 36/21/10 32/23/10 31/24/10
f 33/25/11 37/20/11 35/22/11 31/26/11
f 38/19/12 34/27/12 32/28/12 36/21/12
