# Blender 4.5.0
# www.blender.org
mtllib ParedeJanela.mtl
o Cube.001
v -0.894568 0.822949 -23.938969
v -0.894568 0.009706 -23.938969
v -0.894568 0.822952 10.490223
v -0.894568 0.009709 10.490223
v 0.000000 0.822949 -23.938969
v 0.000000 0.009706 -23.938969
v 0.000000 0.822952 10.490223
v 0.000000 0.009709 10.490223
v -0.894568 0.822948 -25.981236
v -0.894568 0.009706 -25.981236
v 0.000000 0.009706 -25.981236
v 0.000000 0.822948 -25.981236
vn -1.0000 -0.0000 -0.0000
vn -0.0000 -0.0000 1.0000
vn 1.0000 -0.0000 -0.0000
vn -0.0000 1.0000 -0.0000
vn -0.0000 -1.0000 -0.0000
vn -0.0000 -0.0000 -1.0000
vt 0.375000 0.000000
vt 0.625000 0.000000
vt 0.625000 0.250000
vt 0.375000 0.250000
vt 0.625000 0.500000
vt 0.375000 0.500000
vt 0.625000 0.750000
vt 0.375000 0.750000
vt 0.125000 0.500000
vt 0.125000 0.750000
vt 0.875000 0.500000
vt 0.875000 0.750000
vt 0.625000 1.000000
vt 0.375000 1.000000
s 0
f 1/1/1 2/2/1 4/3/1 3/4/1
f 3/4/2 4/3/2 8/5/2 7/6/2
f 7/6/3 8/5/3 6/7/3 5/8/3
f 5/8/3 6/7/3 11/7/3 12/8/3
f 3/9/4 7/6/4 5/8/4 1/10/4
f 8/5/5 4/11/5 2/12/5 6/7/5
f 12/8/6 11/7/6 10/13/6 9/14/6
f 2/2/1 1/1/1 9/1/1 10/2/1
f 1/10/4 5/8/4 12/8/4 9/10/4
f 6/7/5 2/12/5 10/12/5 11/7/5
o Cube.002
v 0.000000 5.824401 9.473670
v 0.000000 5.824401 9.473670
v -0.000000 0.822950 9.473670
v -0.000000 0.822950 9.473670
v 0.000000 5.824401 10.449561
v 0.000000 5.824401 10.449561
v -0.000000 0.822950 10.449561
v -0.000000 0.822950 10.449561
vn 1.0000 -0.0000 -0.0000
vn -1.0000 -0.0000 -0.0000
vt 0.375000 0.000000
vt 0.625000 0.000000
vt 0.625000 0.250000
vt 0.375000 0.250000
vt 0.625000 0.500000
vt 0.375000 0.500000
vt 0.625000 0.750000
vt 0.375000 0.750000
vt 0.625000 1.000000
vt 0.375000 1.000000
vt 0.125000 0.500000
vt 0.125000 0.750000
vt 0.875000 0.500000
vt 0.875000 0.750000
s 0
f 13/15/7 14/16/7 16/17/7 15/18/7
f 15/18/7 16/17/7 20/19/7 19/20/7
f 19/20/7 20/19/7 18/21/7 17/22/7
f 17/22/7 18/21/7 14/23/7 13/24/7
f 15/25/8 19/20/8 17/22/8 13/26/8
f 20/19/7 16/27/7 14/28/7 18/21/7
o Cube.003
v 0.000001 5.092483 -21.470266
v 0.000001 5.092483 -21.470266
v 0.000001 5.824399 -21.470266
v 0.000001 5.824399 -21.470266
v 0.000000 5.092486 9.554993
v -0.000000 5.092486 9.554993
v 0.000000 5.824401 9.554993
v -0.000000 5.824401 9.554993
v 0.000001 5.092483 -21.470266
v 0.000001 5.092483 -21.470266
v 0.000001 5.824399 -21.470266
v 0.000001 5.824399 -21.470266
v 0.000000 5.092486 9.554993
v -0.000000 5.092486 9.554993
v 0.000000 5.824401 9.554993
v -0.000000 5.824401 9.554993
v 0.000001 5.092483 -21.470266
v 0.000001 5.824399 -21.470266
v 0.000001 5.092483 -21.470266
v 0.000001 5.824399 -21.470266
v 0.000001 5.092483 -22.643356
v 0.000001 5.824399 -22.643356
v -0.048027 0.822950 -25.960732
v -0.048027 5.724224 -25.960732
v -0.048027 0.822950 -25.334312
v -0.048027 5.724224 -25.334312
v -0.851110 0.822950 -25.960732
v -0.851110 5.724224 -25.960732
v -0.851110 0.822950 -25.334312
v -0.851110 5.724224 -25.334312
v 0.000001 5.092483 -25.970951
v 0.000001 5.824399 -25.970951
vn -0.0000 -0.0000 1.0000
vn -0.0000 -1.0000 -0.0000
vn -0.0000 -0.0000 -1.0000
vn -0.0000 1.0000 -0.0000
vn -1.0000 -0.0000 -0.0000
vn 1.0000 -0.0000 -0.0000
vt 0.375000 0.000000
vt 0.375000 0.250000
vt 0.625000 0.250000
vt 0.625000 0.000000
vt 0.375000 0.500000
vt 0.625000 0.500000
vt 0.375000 0.750000
vt 0.625000 0.750000
vt 0.375000 1.000000
vt 0.625000 1.000000
vt 0.125000 0.500000
vt 0.125000 0.750000
vt 0.875000 0.750000
vt 0.875000 0.500000
s 0
f 21/29/9 23/30/9 24/31/9 22/32/9
f 23/30/10 27/33/10 28/34/10 24/31/10
f 27/33/11 25/35/11 26/36/11 28/34/11
f 25/35/12 21/37/12 22/38/12 26/36/12
f 23/39/13 21/40/13 25/35/13 27/33/13
f 28/34/14 26/36/14 22/41/14 24/42/14
f 29/29/11 30/32/11 32/31/11 31/30/11
f 31/30/12 32/31/12 36/34/12 35/33/12
f 35/33/9 36/34/9 34/36/9 33/35/9
f 33/35/10 34/36/10 30/38/10 29/37/10
f 31/39/14 35/33/14 33/35/14 29/40/14
f 36/34/13 32/42/13 30/41/13 34/36/13
f 30/32/13 32/31/13 38/31/13 37/32/13
f 37/32/13 38/31/13 40/31/13 39/32/13
f 39/32/13 40/31/13 42/31/13 41/32/13
f 43/29/14 44/32/14 46/31/14 45/30/14
f 45/30/9 46/31/9 50/34/9 49/33/9
f 49/33/13 50/34/13 48/36/13 47/35/13
f 47/35/11 48/36/11 44/38/11 43/37/11
f 45/39/10 49/33/10 47/35/10 43/40/10
f 50/34/12 46/42/12 44/41/12 48/36/12
f 41/32/13 42/31/13 52/31/13 51/32/13
o Cube.004
v 0.000000 5.051820 -0.569893
v 0.000000 5.051820 0.568645
v -0.060699 0.822951 -0.517477
v -0.060699 5.157074 -0.517477
v -0.060699 0.822951 0.535856
v -0.060699 5.157074 0.535856
v -0.872847 0.822951 -0.517477
v -0.872847 5.157074 -0.517477
v -0.872847 0.822951 0.535856
v -0.872847 5.157074 0.535856
v 0.000001 0.736399 -11.148964
v 0.927891 0.736399 -11.148964
v 0.000001 -0.021457 -11.148964
v 0.927891 -0.021457 -11.148964
v 0.000001 0.736399 -9.661404
v 0.927891 0.736399 -9.661404
v 0.000001 -0.021457 -9.661404
v 0.927891 -0.021457 -9.661404
v 0.000001 5.825167 -11.148964
v 0.927891 5.825167 -11.148964
v 0.927891 5.825167 -9.661404
v 0.000001 5.825167 -9.661404
vn 1.0000 -0.0000 -0.0000
vn -0.0000 -0.0000 1.0000
vn -1.0000 -0.0000 -0.0000
vn -0.0000 -0.0000 -1.0000
vn -0.0000 -1.0000 -0.0000
vn -0.0000 1.0000 -0.0000
vt 0.375000 0.000000
vt 0.625000 0.000000
vt 0.625000 0.250000
vt 0.375000 0.250000
vt 0.625000 0.500000
vt 0.375000 0.500000
vt 0.625000 0.750000
vt 0.375000 0.750000
vt 0.625000 1.000000
vt 0.375000 1.000000
vt 0.125000 0.500000
vt 0.125000 0.750000
vt 0.875000 0.500000
vt 0.875000 0.750000
s 0
f 55/43/15 56/44/15 58/45/15 57/46/15
f 57/46/16 58/45/16 62/47/16 61/48/16
f 61/48/17 62/47/17 60/49/17 59/50/17
f 59/50/18 60/49/18 56/51/18 55/52/18
f 57/53/19 61/48/19 59/50/19 55/54/19
f 62/47/20 58/55/20 56/56/20 60/49/20
f 63/43/18 64/44/18 66/45/18 65/46/18
f 65/46/19 66/45/19 70/47/19 69/48/19
f 69/48/16 70/47/16 68/49/16 67/50/16
f 68/49/15 64/56/15 72/56/15 73/49/15
f 65/53/17 69/48/17 67/50/17 63/54/17
f 70/47/15 66/55/15 64/56/15 68/49/15
f 74/50/20 73/49/20 72/51/20 71/52/20
f 67/50/16 68/49/16 73/49/16 74/50/16
f 64/44/18 63/43/18 71/43/18 72/44/18
f 63/54/17 67/50/17 74/50/17 71/54/17
l 53 54
o Cube.005
v -0.076081 5.051820 -9.556242
v -0.066303 0.822950 -9.556242
v -0.066303 5.051820 -11.142067
v -0.066303 0.822950 -11.142067
l 77 75
l 76 78
